<?xml version="1.0" encoding="utf-8"?>
<svg version="1.1" id="Слой_1" xmlns="http://www.w3.org/2000/svg" xmlns:xlink="http://www.w3.org/1999/xlink"
	 viewBox="0 0 48 48" width="48px" height="48px" xml:space="preserve">
<g id="Expanded">
	<g>
		<g>
			<path d="M24,48C10.8,48,0,37.2,0,24S10.8,0,24,0s24,10.8,24,24S37.2,48,24,48z M24,2C11.9,2,2,11.9,2,24s9.9,22,22,22
				s22-9.9,22-22S36.1,2,24,2z"/>
		</g>
		<g>
			<path d="M24,28c-2.2,0-4-1.8-4-4s1.8-4,4-4s4,1.8,4,4S26.2,28,24,28z M24,22c-1.1,0-2,0.9-2,2s0.9,2,2,2s2-0.9,2-2S25.1,22,24,22
				z"/>
		</g>
		<g>
			<path d="M26.1,22.9c-0.3,0-0.5-0.1-0.7-0.3c-0.4-0.4-0.4-1,0-1.4l9.9-9.9c0.4-0.4,1-0.4,1.4,0s0.4,1,0,1.4l-9.9,9.9
				C26.6,22.8,26.4,22.9,26.1,22.9z"/>
		</g>
		<g>
			<path d="M37.9,19.3c-0.4,0-0.8-0.2-0.9-0.6c-0.2-0.5,0-1.1,0.5-1.3l3.7-1.5c0.5-0.2,1.1,0,1.3,0.5c0.2,0.5,0,1.1-0.5,1.3
				l-3.7,1.5C38.1,19.2,38,19.3,37.9,19.3z"/>
		</g>
		<g>
			<path d="M29.7,11.1c-0.1,0-0.3,0-0.4-0.1c-0.5-0.2-0.8-0.8-0.5-1.3l1.5-3.7c0.2-0.5,0.8-0.8,1.3-0.5c0.5,0.2,0.8,0.8,0.5,1.3
				l-1.5,3.7C30.5,10.9,30.1,11.1,29.7,11.1z"/>
		</g>
		<g>
			<path d="M24,10L24,10c-0.6,0-1-0.4-1-1l0-4c0-0.6,0.4-1,1-1l0,0c0.6,0,1,0.4,1,1l0,4C25,9.6,24.6,10,24,10z"/>
		</g>
		<g>
			<path d="M18.3,11.1c-0.4,0-0.8-0.2-0.9-0.6l-1.5-3.7c-0.2-0.5,0-1.1,0.5-1.3c0.5-0.2,1.1,0,1.3,0.5l1.5,3.7
				c0.2,0.5,0,1.1-0.5,1.3C18.5,11.1,18.4,11.1,18.3,11.1z"/>
		</g>
		<g>
			<path d="M13.4,14.4c-0.3,0-0.5-0.1-0.7-0.3l-2.8-2.8c-0.4-0.4-0.4-1,0-1.4c0.4-0.4,1-0.4,1.4,0l2.8,2.8c0.4,0.4,0.4,1,0,1.4
				C13.9,14.3,13.6,14.4,13.4,14.4z"/>
		</g>
		<g>
			<path d="M10.1,19.3c-0.1,0-0.3,0-0.4-0.1l-3.7-1.5c-0.5-0.2-0.8-0.8-0.5-1.3s0.8-0.8,1.3-0.5l3.7,1.5c0.5,0.2,0.8,0.8,0.5,1.3
				C10.9,19,10.5,19.3,10.1,19.3z"/>
		</g>
	</g>
</g>
</svg>
