<?xml version="1.0" encoding="utf-8"?>
<!-- Generator: Adobe Illustrator 22.1.0, SVG Export Plug-In . SVG Version: 6.00 Build 0)  -->
<svg version="1.1" id="Слой_1" xmlns="http://www.w3.org/2000/svg" xmlns:xlink="http://www.w3.org/1999/xlink" x="0px" y="0px"
	 viewBox="0 0 512 512" style="enable-background:new 0 0 512 512;" width="512px" height="512px" xml:space="preserve">
<style type="text/css">
	.st0{fill:#FFFFFF;}
	.st1{fill:#BBBBBB;}
</style>
<g>
	<g>
		<path class="st0" d="M448.5,465c-5.8-3.1-12.6-7.6-20.2-14l-2.8-2.3l-3.5,0.9c-11.6,3-23.7,4.5-35.9,4.5
			c-65.5,0-118.9-43.3-118.9-96.5S320.6,261,386.1,261S505,304.3,505,357.5c0,16.8-5.4,33.3-15.6,47.8c-10,14.3-24.5,26.3-41.8,34.8
			c-3.5,1.7-5.7,5-5.9,9C441.5,453.8,444.2,459.5,448.5,465z"/>
		<path class="st1" d="M386.1,268c61.7,0,111.9,40.2,111.9,89.5c0,15.3-5,30.4-14.3,43.7c-9.4,13.3-22.9,24.6-39.1,32.6
			c-5.3,2.6-8.9,7.6-9.7,13.5c-0.7-0.6-1.4-1.1-2.1-1.7l-5.5-4.6l-7,1.8c-11,2.8-22.5,4.3-34.2,4.3c-61.7,0-111.9-40.2-111.9-89.5
			C274.3,308.2,324.4,268,386.1,268 M386.1,254c-69.5,0-125.9,46.3-125.9,103.5c0,57.2,56.4,103.5,125.9,103.5
			c13.1,0,25.8-1.7,37.7-4.7c20.1,16.9,36.2,22.2,45.5,22.9c0.2,0,0.4,0,0.6,0c3.1,0,3-2.1,0.9-3.4c-15.1-9.8-27.2-26-20.2-29.4
			c36.7-18.1,61.3-51.1,61.3-88.9C512,300.4,455.6,254,386.1,254L386.1,254z"/>
	</g>
	<g>
		<path class="st0" d="M93.3,440.2c18-14.6,33.3-33.6,32.5-46.7c-0.3-5.3-3-9.4-7.7-11.7c-33.4-16.4-61.3-39.7-80.7-67.3
			C17.5,286.3,7,254,7,221.3C7,118,109.8,34,236.3,34c126.4,0,229.3,84,229.3,187.3c0,103.3-102.8,187.3-229.3,187.3
			c-23.5,0-46.7-2.9-69-8.6l-3.5-0.9l-2.8,2.3C131.5,426.1,108.1,436.1,93.3,440.2z"/>
		<path class="st1" d="M236.3,41c122.6,0,222.3,80.9,222.3,180.3c0,99.4-99.7,180.3-222.3,180.3c-22.9,0-45.6-2.8-67.2-8.4l-7-1.8
			l-5.5,4.6c-12.7,10.6-24.1,18.5-34.2,24.2c7.4-10.1,10.8-19.2,10.4-27.1c-0.5-7.8-4.7-14.2-11.6-17.6
			c-32.3-15.9-59.3-38.4-78.1-65.1c-19-27-29.1-57.9-29.1-89.2C14,121.9,113.7,41,236.3,41 M236.3,27C105.8,27,0,114,0,221.3
			c0,70.8,46.1,132.8,115,166.8c13.1,6.4-9.6,36.8-37.9,55.2c-3.9,2.6-4.1,6.4,1.8,6.4c0.4,0,0.8,0,1.2,0
			c17.5-1.3,47.7-11.3,85.5-42.9c22.3,5.8,46.1,8.9,70.7,8.9c130.5,0,236.3-87,236.3-194.3C472.5,114,366.7,27,236.3,27L236.3,27z"
			/>
	</g>
</g>
</svg>
