<?xml version="1.0" encoding="UTF-8"?><!DOCTYPE svg PUBLIC "-//W3C//DTD SVG 1.1//EN" "http://www.w3.org/Graphics/SVG/1.1/DTD/svg11.dtd"><svg xmlns="http://www.w3.org/2000/svg" xmlns:xlink="http://www.w3.org/1999/xlink"><symbol id="icon-arrow_down" viewBox="0 0 32 32"><path d="M24.285,11.284L16,19.571l-8.285-8.288c-0.395-0.395-1.034-0.395-1.429,0  c-0.394,0.395-0.394,1.035,0,1.43l8.999,9.002l0,0l0,0c0.394,0.395,1.034,0.395,1.428,0l8.999-9.002  c0.394-0.395,0.394-1.036,0-1.431C25.319,10.889,24.679,10.889,24.285,11.284z"/></symbol><symbol id="icon-atomic" viewBox="0 0 512 512">
<g>
	<path d="M424.5,216.5h-15.2c-12.4,0-22.8-10.7-22.8-23.4c0-6.4,2.7-12.2,7.5-16.5l9.8-9.6c9.7-9.6,9.7-25.3,0-34.9L381.5,110
		c-4.4-4.4-10.9-7-17.5-7c-6.6,0-13,2.6-17.5,7l-9.4,9.4c-4.5,5-10.5,7.7-17,7.7c-12.8,0-23.5-10.4-23.5-22.7V89.1
		c0-13.5-10.9-25.1-24.5-25.1h-30.4c-13.6,0-24.4,11.5-24.4,25.1v15.2c0,12.3-10.7,22.7-23.5,22.7c-6.4,0-12.3-2.7-16.6-7.4
		l-9.7-9.6c-4.4-4.5-10.9-7-17.5-7c-6.6,0-13,2.6-17.5,7L110,132c-9.6,9.6-9.6,25.3,0,34.8l9.4,9.4c5,4.5,7.8,10.5,7.8,16.9
		c0,12.8-10.4,23.4-22.8,23.4H89.2c-13.7,0-25.2,10.7-25.2,24.3V256v15.2c0,13.5,11.5,24.3,25.2,24.3h15.2
		c12.4,0,22.8,10.7,22.8,23.4c0,6.4-2.8,12.4-7.8,16.9l-9.4,9.3c-9.6,9.6-9.6,25.3,0,34.8l22.3,22.2c4.4,4.5,10.9,7,17.5,7
		c6.6,0,13-2.6,17.5-7l9.7-9.6c4.2-4.7,10.2-7.4,16.6-7.4c12.8,0,23.5,10.4,23.5,22.7V423c0,13.5,10.8,25.1,24.5,25.1H272
		c13.6,0,24.4-11.5,24.4-25.1v-15.2c0-12.3,10.7-22.7,23.5-22.7c6.4,0,12.4,2.8,17,7.7l9.4,9.4c4.5,4.4,10.9,7,17.5,7
		c6.6,0,13-2.6,17.5-7l22.3-22.2c9.6-9.6,9.6-25.3,0-34.9l-9.8-9.6c-4.8-4.3-7.5-10.2-7.5-16.5c0-12.8,10.4-23.4,22.8-23.4h15.2
		c13.6,0,23.3-10.7,23.3-24.3V256v-15.2C447.8,227.2,438.1,216.5,424.5,216.5z M336.1,268c10.4,12.6,15.9,24,15.9,33.4
		c0,3.6-0.6,7.1-2.6,10c-6.5,10.4-22,13.6-44.7,9.1c-4.5-1-9.4-1.9-14.3-3.6c-8.4,31.4-22.3,47.6-35.6,47.6
		c-13.3-0.3-27.2-17.2-34.7-48.9c-31.7,8.1-53.1,3.9-59.6-7.8c-6.5-11.3,1.3-31.4,24.9-53.1c-22.7-22.7-29.5-43.1-22.7-54.4
		s27.9-14.9,58.6-5.5c8.4-31.1,22.3-47.3,35.6-47.3c13.3,0,27.2,17.2,35,48.6c5.2-1.3,10.4-2.6,15.2-3.2c22.7-3.6,38.2,0,44.1,10.7
		c1.6,2.6,2.3,5.8,2.3,9.1c0,11.7-8.7,27.5-27.2,44.7C330,260.9,333.2,264.5,336.1,268z"/>
	<path d="M170.9,205.2c-1,1.6-1.3,3.6-1.3,5.5c0,8.7,8.1,22.7,23.3,37.2c6.5-5.5,13.9-11,22.3-16.5c1-9.7,2.3-19.1,3.9-27.2
		C193.9,196.5,175.8,197.1,170.9,205.2z"/>
	<path d="M266.2,297.5c5.8,2.6,11.3,4.9,16.8,6.8c1.3-5.5,2.3-11.3,2.9-17.5c-3.2,1.9-6.5,3.9-10,5.8
		C272.6,294.3,269.4,295.9,266.2,297.5z"/>
	<path d="M234.7,291.7c-3.2-1.9-6.5-3.9-9.4-5.8c0.6,6.2,1.3,11.7,2.3,17.2c5.2-1.6,10.7-3.6,16.5-5.8
		C240.9,295.3,238,293.6,234.7,291.7z"/>
	<path d="M272.3,228.5c-5.2-3.2-10.4-6.2-15.5-8.7c-5.5,2.6-10.7,5.2-16.2,8.1c-5.5,3.2-11,6.2-15.9,9.4c-0.3,5.8-0.6,12-0.6,18.5
		c0,1,0,1.9,0,2.9c0,5.2,0,10,0.3,14.9c4.9,3.2,9.7,6.5,15.2,9.7c5.2,3.2,10.4,6.2,15.5,8.7c5.2-2.3,10.7-4.9,16.2-8.1
		c5.5-3.2,11-6.2,15.9-9.4c0.3-5.8,0.6-12,0.6-18.5c0-6.2,0-12-0.3-17.8C282.7,235,277.5,231.8,272.3,228.5z"/>
	<path d="M277.2,220.4c3.2,1.6,6.2,3.6,9.1,5.8c-0.6-6.2-1.3-11.7-2.3-17.2c-5.2,1.6-10.7,3.6-16.2,5.8
		C271,216.9,273.9,218.5,277.2,220.4z"/>
	<path d="M245.4,214.6c-5.8-2.6-11.7-4.9-16.8-6.8c-1.3,5.5-2.3,11.3-2.9,17.5c3.2-1.9,6.5-3.9,10-5.8
		C239,217.8,242.2,216.2,245.4,214.6z"/>
	<path d="M214.3,244.4c-5.2,3.6-9.7,7.1-14.3,10.7c4.5,3.6,9.1,7.4,13.9,11.7c0-3.6,0-7.1,0-11C214,251.9,214,248,214.3,244.4z"/>
	<path d="M192.3,261.6c-15.9,14.6-24.6,28.2-24.6,36.9c0,1.9,0.6,3.6,1.3,4.9c4.5,8.4,23.3,9.7,48.6,2.6c-1.6-8.1-2.6-17.2-3.2-26.9
		C206.2,273.2,198.8,267.4,192.3,261.6z"/>
	<path d="M229.6,313.1c5.8,25.9,15.9,41.8,25.3,41.8s19.4-15.2,26.2-40.8c-8.4-2.9-17.2-6.8-25.9-11
		C246.1,307.2,237.7,310.5,229.6,313.1z"/>
	<path d="M318.6,264.5c-6.5,5.2-13.9,10.7-22.3,16.2c-1,9.7-2.3,19.1-3.9,27.2c4.9,1.6,9.4,2.6,13.9,3.6c17.8,3.6,30.4,1.9,34.3-4.5
		c3.9-6.5-1-18.5-12.3-32.4C325.4,271,322.2,267.4,318.6,264.5z"/>
	<path d="M297.6,252.8c0,1.3,0,2.3,0,3.6c0,4.2-0.3,7.8-0.3,11.7c5.2-3.9,9.7-7.4,14.3-11c-4.5-3.9-9.1-7.8-13.9-11.7
		C297.6,248,297.6,250.2,297.6,252.8z"/>
	<path d="M342.6,208.8c-3.6-6.5-16.2-8.7-34-5.5c-4.9,0.6-9.7,1.9-14.9,3.2c1.6,8.1,2.6,17.2,3.2,26.9c8.1,5.5,15.5,11.7,22,17.5
		C338.4,233.1,347.1,216.9,342.6,208.8z"/>
	<path d="M282,199.4c-5.8-26.2-15.9-42.1-25.3-42.1c-9.1-0.3-19.4,15.2-25.9,40.5c8.1,2.9,16.8,6.8,25.9,11.3
		C265.2,205.2,273.9,202,282,199.4z"/>
</g>
</symbol><symbol id="icon-board" viewBox="0 0 48 48">
<g id="Expanded">
	<g>
		<g>
			<path d="M24,48C10.8,48,0,37.2,0,24S10.8,0,24,0s24,10.8,24,24S37.2,48,24,48z M24,2C11.9,2,2,11.9,2,24s9.9,22,22,22
				s22-9.9,22-22S36.1,2,24,2z"/>
		</g>
		<g>
			<path d="M24,28c-2.2,0-4-1.8-4-4s1.8-4,4-4s4,1.8,4,4S26.2,28,24,28z M24,22c-1.1,0-2,0.9-2,2s0.9,2,2,2s2-0.9,2-2S25.1,22,24,22
				z"/>
		</g>
		<g>
			<path d="M26.1,22.9c-0.3,0-0.5-0.1-0.7-0.3c-0.4-0.4-0.4-1,0-1.4l9.9-9.9c0.4-0.4,1-0.4,1.4,0s0.4,1,0,1.4l-9.9,9.9
				C26.6,22.8,26.4,22.9,26.1,22.9z"/>
		</g>
		<g>
			<path d="M37.9,19.3c-0.4,0-0.8-0.2-0.9-0.6c-0.2-0.5,0-1.1,0.5-1.3l3.7-1.5c0.5-0.2,1.1,0,1.3,0.5c0.2,0.5,0,1.1-0.5,1.3
				l-3.7,1.5C38.1,19.2,38,19.3,37.9,19.3z"/>
		</g>
		<g>
			<path d="M29.7,11.1c-0.1,0-0.3,0-0.4-0.1c-0.5-0.2-0.8-0.8-0.5-1.3l1.5-3.7c0.2-0.5,0.8-0.8,1.3-0.5c0.5,0.2,0.8,0.8,0.5,1.3
				l-1.5,3.7C30.5,10.9,30.1,11.1,29.7,11.1z"/>
		</g>
		<g>
			<path d="M24,10L24,10c-0.6,0-1-0.4-1-1l0-4c0-0.6,0.4-1,1-1l0,0c0.6,0,1,0.4,1,1l0,4C25,9.6,24.6,10,24,10z"/>
		</g>
		<g>
			<path d="M18.3,11.1c-0.4,0-0.8-0.2-0.9-0.6l-1.5-3.7c-0.2-0.5,0-1.1,0.5-1.3c0.5-0.2,1.1,0,1.3,0.5l1.5,3.7
				c0.2,0.5,0,1.1-0.5,1.3C18.5,11.1,18.4,11.1,18.3,11.1z"/>
		</g>
		<g>
			<path d="M13.4,14.4c-0.3,0-0.5-0.1-0.7-0.3l-2.8-2.8c-0.4-0.4-0.4-1,0-1.4c0.4-0.4,1-0.4,1.4,0l2.8,2.8c0.4,0.4,0.4,1,0,1.4
				C13.9,14.3,13.6,14.4,13.4,14.4z"/>
		</g>
		<g>
			<path d="M10.1,19.3c-0.1,0-0.3,0-0.4-0.1l-3.7-1.5c-0.5-0.2-0.8-0.8-0.5-1.3s0.8-0.8,1.3-0.5l3.7,1.5c0.5,0.2,0.8,0.8,0.5,1.3
				C10.9,19,10.5,19.3,10.1,19.3z"/>
		</g>
	</g>
</g>
</symbol><symbol id="icon-chat" viewBox="0 0 512 512">
<style type="text/css">
	.st0{fill:#FFFFFF;}
	.st1{fill:#BBBBBB;}
</style>
<g>
	<g>
		<path class="st0" d="M448.5,465c-5.8-3.1-12.6-7.6-20.2-14l-2.8-2.3l-3.5,0.9c-11.6,3-23.7,4.5-35.9,4.5
			c-65.5,0-118.9-43.3-118.9-96.5S320.6,261,386.1,261S505,304.3,505,357.5c0,16.8-5.4,33.3-15.6,47.8c-10,14.3-24.5,26.3-41.8,34.8
			c-3.5,1.7-5.7,5-5.9,9C441.5,453.8,444.2,459.5,448.5,465z"/>
		<path class="st1" d="M386.1,268c61.7,0,111.9,40.2,111.9,89.5c0,15.3-5,30.4-14.3,43.7c-9.4,13.3-22.9,24.6-39.1,32.6
			c-5.3,2.6-8.9,7.6-9.7,13.5c-0.7-0.6-1.4-1.1-2.1-1.7l-5.5-4.6l-7,1.8c-11,2.8-22.5,4.3-34.2,4.3c-61.7,0-111.9-40.2-111.9-89.5
			C274.3,308.2,324.4,268,386.1,268 M386.1,254c-69.5,0-125.9,46.3-125.9,103.5c0,57.2,56.4,103.5,125.9,103.5
			c13.1,0,25.8-1.7,37.7-4.7c20.1,16.9,36.2,22.2,45.5,22.9c0.2,0,0.4,0,0.6,0c3.1,0,3-2.1,0.9-3.4c-15.1-9.8-27.2-26-20.2-29.4
			c36.7-18.1,61.3-51.1,61.3-88.9C512,300.4,455.6,254,386.1,254L386.1,254z"/>
	</g>
	<g>
		<path class="st0" d="M93.3,440.2c18-14.6,33.3-33.6,32.5-46.7c-0.3-5.3-3-9.4-7.7-11.7c-33.4-16.4-61.3-39.7-80.7-67.3
			C17.5,286.3,7,254,7,221.3C7,118,109.8,34,236.3,34c126.4,0,229.3,84,229.3,187.3c0,103.3-102.8,187.3-229.3,187.3
			c-23.5,0-46.7-2.9-69-8.6l-3.5-0.9l-2.8,2.3C131.5,426.1,108.1,436.1,93.3,440.2z"/>
		<path class="st1" d="M236.3,41c122.6,0,222.3,80.9,222.3,180.3c0,99.4-99.7,180.3-222.3,180.3c-22.9,0-45.6-2.8-67.2-8.4l-7-1.8
			l-5.5,4.6c-12.7,10.6-24.1,18.5-34.2,24.2c7.4-10.1,10.8-19.2,10.4-27.1c-0.5-7.8-4.7-14.2-11.6-17.6
			c-32.3-15.9-59.3-38.4-78.1-65.1c-19-27-29.1-57.9-29.1-89.2C14,121.9,113.7,41,236.3,41 M236.3,27C105.8,27,0,114,0,221.3
			c0,70.8,46.1,132.8,115,166.8c13.1,6.4-9.6,36.8-37.9,55.2c-3.9,2.6-4.1,6.4,1.8,6.4c0.4,0,0.8,0,1.2,0
			c17.5-1.3,47.7-11.3,85.5-42.9c22.3,5.8,46.1,8.9,70.7,8.9c130.5,0,236.3-87,236.3-194.3C472.5,114,366.7,27,236.3,27L236.3,27z"/>
	</g>
</g>
</symbol><symbol id="icon-dots" viewBox="0 0 90 20">
<style>
  .dot {
    fill: rgba(103,103,103,0.6);
  }
</style>
<circle class="dot" cx="45.1" cy="9.8" r="9.8"/>
<circle class="dot" cx="80.3" cy="9.8" r="9.8"/>
<circle class="dot" cx="9.8" cy="9.8" r="9.8"/>
</symbol><symbol id="icon-gear" viewBox="0 0 512 512"><path d="M424.5,216.5h-15.2c-12.4,0-22.8-10.7-22.8-23.4c0-6.4,2.7-12.2,7.5-16.5l9.8-9.6c9.7-9.6,9.7-25.3,0-34.9l-22.3-22.1  c-4.4-4.4-10.9-7-17.5-7c-6.6,0-13,2.6-17.5,7l-9.4,9.4c-4.5,5-10.5,7.7-17,7.7c-12.8,0-23.5-10.4-23.5-22.7V89.1  c0-13.5-10.9-25.1-24.5-25.1h-30.4c-13.6,0-24.4,11.5-24.4,25.1v15.2c0,12.3-10.7,22.7-23.5,22.7c-6.4,0-12.3-2.7-16.6-7.4l-9.7-9.6  c-4.4-4.5-10.9-7-17.5-7s-13,2.6-17.5,7L110,132c-9.6,9.6-9.6,25.3,0,34.8l9.4,9.4c5,4.5,7.8,10.5,7.8,16.9  c0,12.8-10.4,23.4-22.8,23.4H89.2c-13.7,0-25.2,10.7-25.2,24.3V256v15.2c0,13.5,11.5,24.3,25.2,24.3h15.2  c12.4,0,22.8,10.7,22.8,23.4c0,6.4-2.8,12.4-7.8,16.9l-9.4,9.3c-9.6,9.6-9.6,25.3,0,34.8l22.3,22.2c4.4,4.5,10.9,7,17.5,7  c6.6,0,13-2.6,17.5-7l9.7-9.6c4.2-4.7,10.2-7.4,16.6-7.4c12.8,0,23.5,10.4,23.5,22.7v15.2c0,13.5,10.8,25.1,24.5,25.1h30.4  c13.6,0,24.4-11.5,24.4-25.1v-15.2c0-12.3,10.7-22.7,23.5-22.7c6.4,0,12.4,2.8,17,7.7l9.4,9.4c4.5,4.4,10.9,7,17.5,7  c6.6,0,13-2.6,17.5-7l22.3-22.2c9.6-9.6,9.6-25.3,0-34.9l-9.8-9.6c-4.8-4.3-7.5-10.2-7.5-16.5c0-12.8,10.4-23.4,22.8-23.4h15.2  c13.6,0,23.3-10.7,23.3-24.3V256v-15.2C447.8,227.2,438.1,216.5,424.5,216.5z M336.8,256L336.8,256c0,44.1-35.7,80-80,80  c-44.3,0-80-35.9-80-80l0,0l0,0c0-44.1,35.7-80,80-80C301.1,176,336.8,211.9,336.8,256L336.8,256z"/></symbol><symbol id="icon-hamburger" viewBox="0 0 32 32"><path d="M4,10h24c1.104,0,2-0.896,2-2s-0.896-2-2-2H4C2.896,6,2,6.896,2,8S2.896,10,4,10z M28,14H4c-1.104,0-2,0.896-2,2  s0.896,2,2,2h24c1.104,0,2-0.896,2-2S29.104,14,28,14z M28,22H4c-1.104,0-2,0.896-2,2s0.896,2,2,2h24c1.104,0,2-0.896,2-2  S29.104,22,28,22z"/></symbol><symbol id="icon-refresh" viewBox="0 0 32 32"><path d="M25.032,26.16c2.884-2.883,4.184-6.74,3.928-10.51c-1.511,0.013-3.021,0.021-4.531,0.034  c0.254,2.599-0.603,5.287-2.594,7.277c-3.535,3.533-9.263,3.533-12.796,0c-3.534-3.533-3.534-9.26,0-12.794  c3.015-3.016,7.625-3.446,11.109-1.314c-1.181,1.167-2.57,2.549-2.57,2.549c-1,1.062,0.016,1.766,0.69,1.77h8.828  c0.338,0,0.611-0.274,0.612-0.612V3.804c0.041-0.825-0.865-1.591-1.756-0.7c0,0-1.495,1.48-2.533,2.509  C18.112,1.736,10.634,2.175,5.841,6.967c-5.3,5.3-5.3,13.892,0,19.193C11.141,31.459,19.733,31.459,25.032,26.16z"/></symbol></svg>